<?xml version="1.0" encoding="UTF-8" standalone="no"?>
<!-- Created with Inkscape (http://www.inkscape.org/) -->

<svg
   xmlns:dc="http://purl.org/dc/elements/1.1/"
   xmlns:cc="http://creativecommons.org/ns#"
   xmlns:rdf="http://www.w3.org/1999/02/22-rdf-syntax-ns#"
   xmlns:svg="http://www.w3.org/2000/svg"
   xmlns="http://www.w3.org/2000/svg"
   xmlns:sodipodi="http://sodipodi.sourceforge.net/DTD/sodipodi-0.dtd"
   xmlns:inkscape="http://www.inkscape.org/namespaces/inkscape"
   width="64px"
   height="64px"
   id="svg2985"
   version="1.1"
   inkscape:version="0.48.3.1 r9886"
   sodipodi:docname="ლოგო.png"
   inkscape:export-filename="/home/rezo/Projects/დიდი დაფა/სურათები/ლოგო.png"
   inkscape:export-xdpi="90"
   inkscape:export-ydpi="90">
  <defs
     id="defs2987" />
  <sodipodi:namedview
     id="base"
     pagecolor="#ffffff"
     bordercolor="#666666"
     borderopacity="1.0"
     inkscape:pageopacity="0.0"
     inkscape:pageshadow="2"
     inkscape:zoom="7.7781746"
     inkscape:cx="26.973493"
     inkscape:cy="24.689966"
     inkscape:current-layer="layer1"
     showgrid="true"
     inkscape:document-units="px"
     inkscape:grid-bbox="true"
     inkscape:snap-bbox="true"
     inkscape:snap-global="true"
     inkscape:object-paths="false"
     inkscape:bbox-nodes="false"
     inkscape:window-width="1239"
     inkscape:window-height="763"
     inkscape:window-x="503"
     inkscape:window-y="96"
     inkscape:window-maximized="0" />
  <metadata
     id="metadata2990">
    <rdf:RDF>
      <cc:Work
         rdf:about="">
        <dc:format>image/svg+xml</dc:format>
        <dc:type
           rdf:resource="http://purl.org/dc/dcmitype/StillImage" />
        <dc:title></dc:title>
      </cc:Work>
    </rdf:RDF>
  </metadata>
  <g
     id="layer1"
     inkscape:label="Layer 1"
     inkscape:groupmode="layer">
    <path
       style="fill:#f6f5f3;fill-opacity:1;stroke:#000000;stroke-width:1px;stroke-linecap:butt;stroke-linejoin:miter;stroke-opacity:1"
       d="M 2.6702352,5.8493773 C 5.5793266,5.6675583 50.540102,7.8934934 50.540102,7.8934934 L 53.272727,43.454546 7.836455,60.633687 z"
       id="path3041"
       inkscape:connector-curvature="0"
       sodipodi:nodetypes="ccccc"
       inkscape:export-xdpi="90"
       inkscape:export-ydpi="90"
       inkscape:export-filename="/home/rezo/Projects/დიდი დაფა/სურათები/ლოგო.png" />
    <path
       style="fill:none;stroke:#f32f59;stroke-width:1px;stroke-linecap:butt;stroke-linejoin:miter;stroke-opacity:1"
       d="m 10.269591,15.490712 c 0,0 11.751895,-5.7414358 13.499312,-4.242641 3.579036,3.069812 -14.0135716,15.55635 -11.185144,16.327739 2.828427,0.771389 23.179135,-14.156868 27.255753,-12.213663 3.078376,1.964934 -22.277648,27.059928 -18.899036,29.31279 2.023064,1.348981 23.414889,-16.16 25.970103,-14.013571 1.757193,1.476076 -5.01403,12.342228 -5.01403,12.342228"
       id="path3986"
       inkscape:connector-curvature="0"
       sodipodi:nodetypes="csscssc" />
    <path
       sodipodi:type="arc"
       style="fill:#0061d2;fill-opacity:0.99029122;stroke:#000000;stroke-width:1;stroke-linecap:butt;stroke-linejoin:round;stroke-miterlimit:4;stroke-opacity:0.95145629;stroke-dasharray:none"
       id="path3819-4"
       sodipodi:cx="50.545456"
       sodipodi:cy="45.18182"
       sodipodi:rx="1.9265802"
       sodipodi:ry="1.8668665"
       d="m 52.472036,45.18182 a 1.9265802,1.8668665 0 1 1 -3.85316,0 1.9265802,1.8668665 0 1 1 3.85316,0 z"
       transform="translate(-2.6427421,-8.9304221)" />
    <path
       sodipodi:type="arc"
       style="fill:#ffff00;fill-opacity:1;stroke:#000000;stroke-width:1;stroke-linecap:butt;stroke-linejoin:round;stroke-miterlimit:4;stroke-opacity:0.95145629;stroke-dasharray:none"
       id="path3819-6"
       sodipodi:cx="50.545456"
       sodipodi:cy="45.18182"
       sodipodi:rx="1.8512686"
       sodipodi:ry="1.8071525"
       d="m 52.396725,45.18182 a 1.8512686,1.8071525 0 1 1 -3.702538,0 1.8512686,1.8071525 0 1 1 3.702538,0 z"
       transform="translate(-9.5975452,-8.9196909)" />
    <path
       sodipodi:type="arc"
       style="fill:#00b500;fill-opacity:1;stroke:#000000;stroke-width:1;stroke-linecap:butt;stroke-linejoin:round;stroke-miterlimit:4;stroke-opacity:0.95145629;stroke-dasharray:none"
       id="path3819-41"
       sodipodi:cx="50.545456"
       sodipodi:cy="45.18182"
       sodipodi:rx="2.2681582"
       sodipodi:ry="2.181818"
       d="m 52.813614,45.18182 a 2.2681582,2.181818 0 1 1 -4.536316,0 2.2681582,2.181818 0 1 1 4.536316,0 z"
       transform="translate(8.4428148,-3.3198464)" />
    <path
       sodipodi:type="arc"
       style="fill:#ff00ff;fill-opacity:1;stroke:#000000;stroke-width:1;stroke-linecap:butt;stroke-linejoin:round;stroke-miterlimit:4;stroke-opacity:0.95145629;stroke-dasharray:none"
       id="path3819-2"
       sodipodi:cx="50.545456"
       sodipodi:cy="45.18182"
       sodipodi:rx="1.7282183"
       sodipodi:ry="1.6685046"
       d="m 52.273674,45.18182 a 1.7282183,1.6685046 0 1 1 -3.456436,0 1.7282183,1.6685046 0 1 1 3.456436,0 z"
       transform="translate(-17.071634,-9.5962234)" />
    <path
       sodipodi:type="arc"
       style="fill:#d95c00;fill-opacity:1;stroke:#000000;stroke-width:1;stroke-linecap:butt;stroke-linejoin:round;stroke-miterlimit:4;stroke-opacity:0.95145629;stroke-dasharray:none"
       id="path3819-8"
       sodipodi:cx="50.545456"
       sodipodi:cy="45.18182"
       sodipodi:rx="0.99220073"
       sodipodi:ry="0.93800157"
       d="m 51.537657,45.18182 a 0.99220073,0.93800157 0 1 1 -1.984402,0 0.99220073,0.93800157 0 1 1 1.984402,0 z"
       transform="translate(-21.421729,-16.503795)" />
    <path
       sodipodi:type="arc"
       style="fill:#04ff00;fill-opacity:1;stroke:#000000;stroke-width:1;stroke-linecap:butt;stroke-linejoin:round;stroke-miterlimit:4;stroke-opacity:0.95145629;stroke-dasharray:none"
       id="path3819-8-0"
       sodipodi:cx="50.545456"
       sodipodi:cy="45.18182"
       sodipodi:rx="1.2116747"
       sodipodi:ry="1.2350713"
       d="m 51.757131,45.18182 a 1.2116747,1.2350713 0 1 1 -2.42335,0 1.2116747,1.2350713 0 1 1 2.42335,0 z"
       transform="translate(-13.711621,-16.440736)" />
    <path
       sodipodi:type="arc"
       style="fill:#ff74ff;fill-opacity:1;stroke:#000000;stroke-width:1;stroke-linecap:butt;stroke-linejoin:round;stroke-miterlimit:4;stroke-opacity:0.95145628999999998;stroke-dasharray:none"
       id="path3819-63"
       sodipodi:cx="50.545456"
       sodipodi:cy="45.18182"
       sodipodi:rx="3.0992615"
       sodipodi:ry="2.8467007"
       d="m 53.644717,45.18182 a 3.0992615,2.8467007 0 1 1 -6.198523,0 3.0992615,2.8467007 0 1 1 6.198523,0 z"
       transform="translate(5.5088271,12.261372)" />
    <path
       style="fill:none;stroke:#000000;stroke-width:1px;stroke-linecap:butt;stroke-linejoin:miter;stroke-opacity:1"
       d="m 18.600601,56.824642 c 0.727272,0.363637 6.126672,1.538994 6.126672,1.538994 L 50.545455,47.181818 45.244877,46.597369 z"
       id="path3968"
       inkscape:connector-curvature="0"
       sodipodi:nodetypes="ccccc" />
    <path
       sodipodi:type="arc"
       style="fill:#cb0000;fill-opacity:1;stroke:#000000;stroke-width:1;stroke-linecap:butt;stroke-linejoin:round;stroke-miterlimit:4;stroke-opacity:0.95145629;stroke-dasharray:none"
       id="path3819"
       sodipodi:cx="50.545456"
       sodipodi:cy="45.18182"
       sodipodi:rx="2.0772033"
       sodipodi:ry="1.9155514"
       d="m 52.622659,45.18182 a 2.0772033,1.9155514 0 1 1 -4.154406,0 2.0772033,1.9155514 0 1 1 4.154406,0 z"
       transform="translate(-11.301436,2.2681588)" />
  </g>
</svg>
